<mxfile host="65bd71144e">
    <diagram id="G4ER-AwJMYdycsgCSYLL" name="Page-1">
        <mxGraphModel dx="1171" dy="639" grid="1" gridSize="10" guides="1" tooltips="1" connect="1" arrows="1" fold="1" page="1" pageScale="1" pageWidth="850" pageHeight="1100" math="0" shadow="0">
            <root>
                <mxCell id="0"/>
                <mxCell id="1" parent="0"/>
                <mxCell id="6" style="edgeStyle=none;html=1;fontSize=17;" edge="1" parent="1" source="2" target="5">
                    <mxGeometry relative="1" as="geometry"/>
                </mxCell>
                <mxCell id="2" value="Start" style="rounded=1;whiteSpace=wrap;html=1;fillColor=#fa6800;fontColor=#000000;strokeColor=#C73500;arcSize=50;fontSize=17;" vertex="1" parent="1">
                    <mxGeometry x="365.25" y="80" width="120" height="40" as="geometry"/>
                </mxCell>
                <mxCell id="3" value="End" style="rounded=1;whiteSpace=wrap;html=1;fillColor=#fa6800;fontColor=#000000;strokeColor=#C73500;arcSize=50;fontSize=17;" vertex="1" parent="1">
                    <mxGeometry x="365" y="920" width="120" height="40" as="geometry"/>
                </mxCell>
                <mxCell id="8" style="edgeStyle=none;html=1;fontSize=17;" edge="1" parent="1" source="5" target="7">
                    <mxGeometry relative="1" as="geometry"/>
                </mxCell>
                <mxCell id="5" value="assignment1 = NULL&lt;br style=&quot;font-size: 17px;&quot;&gt;assignment2 = NULL&lt;br style=&quot;font-size: 17px;&quot;&gt;seat_work1 = NULL&lt;br style=&quot;font-size: 17px;&quot;&gt;seat_work2 = NULL&lt;br style=&quot;font-size: 17px;&quot;&gt;seat_work3 = NULL&lt;br style=&quot;font-size: 17px;&quot;&gt;quiz1 = NULL&lt;br style=&quot;font-size: 17px;&quot;&gt;quiz2 = NULL&lt;br style=&quot;font-size: 17px;&quot;&gt;quiz3 = NULL&lt;br style=&quot;font-size: 17px;&quot;&gt;exam = NULL&lt;br style=&quot;font-size: 17px;&quot;&gt;grade = NULL" style="shape=hexagon;perimeter=hexagonPerimeter2;whiteSpace=wrap;html=1;fixedSize=1;fillColor=#fa6800;fontColor=#000000;strokeColor=#C73500;fontSize=17;" vertex="1" parent="1">
                    <mxGeometry x="285" y="160" width="280" height="240" as="geometry"/>
                </mxCell>
                <mxCell id="11" style="edgeStyle=none;html=1;fontSize=17;" edge="1" parent="1" source="7" target="9">
                    <mxGeometry relative="1" as="geometry"/>
                </mxCell>
                <mxCell id="7" value="INPUT&lt;br style=&quot;font-size: 17px;&quot;&gt;assignment1,&amp;nbsp;assignment2,&amp;nbsp;&lt;br style=&quot;font-size: 17px;&quot;&gt;seat_work1,&amp;nbsp;seat_work2,&amp;nbsp;seat_work3,&lt;br style=&quot;font-size: 17px;&quot;&gt;quiz1, quiz2,&amp;nbsp;quiz3,&lt;br style=&quot;font-size: 17px;&quot;&gt;exam" style="shape=parallelogram;perimeter=parallelogramPerimeter;whiteSpace=wrap;html=1;fixedSize=1;fillColor=#fa6800;fontColor=#000000;strokeColor=#C73500;fontSize=17;" vertex="1" parent="1">
                    <mxGeometry x="245" y="440" width="360" height="120" as="geometry"/>
                </mxCell>
                <mxCell id="13" style="edgeStyle=none;html=1;fontSize=17;" edge="1" parent="1" source="9" target="12">
                    <mxGeometry relative="1" as="geometry"/>
                </mxCell>
                <mxCell id="9" value="grade = ((assignment1 +&amp;nbsp;assignment2) * 0.10) +&lt;br style=&quot;font-size: 17px;&quot;&gt;&lt;blockquote style=&quot;margin: 0px 0px 0px 40px; border: none; padding: 0px; font-size: 17px;&quot;&gt;((seat_work1 + seat_work2 + seat_work3) * 0.20) +&lt;br style=&quot;font-size: 17px;&quot;&gt;&lt;/blockquote&gt;&lt;blockquote style=&quot;margin: 0px 0px 0px 40px; border: none; padding: 0px; font-size: 17px;&quot;&gt;((quiz1 + quiz2 + quiz3) * 0.30) +&lt;/blockquote&gt;&lt;blockquote style=&quot;margin: 0px 0px 0px 40px; border: none; padding: 0px; font-size: 17px;&quot;&gt;(exam * 0.40)&lt;/blockquote&gt;&lt;span style=&quot;text-align: center; font-size: 17px;&quot;&gt;&lt;br style=&quot;font-size: 17px;&quot;&gt;&lt;/span&gt;" style="rounded=0;whiteSpace=wrap;html=1;fillColor=#fa6800;fontColor=#000000;strokeColor=#C73500;align=left;fontSize=17;" vertex="1" parent="1">
                    <mxGeometry x="205" y="600" width="440" height="160" as="geometry"/>
                </mxCell>
                <mxCell id="14" style="edgeStyle=none;html=1;entryX=0.5;entryY=0;entryDx=0;entryDy=0;fontSize=17;" edge="1" parent="1" source="12" target="3">
                    <mxGeometry relative="1" as="geometry"/>
                </mxCell>
                <mxCell id="12" value="PRINT grade" style="shape=parallelogram;perimeter=parallelogramPerimeter;whiteSpace=wrap;html=1;fixedSize=1;fillColor=#fa6800;fontColor=#000000;strokeColor=#C73500;fontSize=17;" vertex="1" parent="1">
                    <mxGeometry x="328" y="800" width="194.5" height="80" as="geometry"/>
                </mxCell>
            </root>
        </mxGraphModel>
    </diagram>
</mxfile>